<mxfile host="Electron" modified="2023-12-16T01:28:01.440Z" agent="Mozilla/5.0 (Windows NT 10.0; Win64; x64) AppleWebKit/537.36 (KHTML, like Gecko) draw.io/22.1.2 Chrome/114.0.5735.289 Electron/25.9.4 Safari/537.36" etag="Efe-7ucoGitu95Fp_Upy" version="22.1.2" type="device" pages="2">
  <diagram id="MfODxT4glgtbZVAaTSRO" name="消息总线2.0升级示意图">
    <mxGraphModel dx="1870" dy="967" grid="1" gridSize="10" guides="1" tooltips="1" connect="1" arrows="1" fold="1" page="1" pageScale="1" pageWidth="1100" pageHeight="1700" background="#DAD2D8" math="0" shadow="0">
      <root>
        <mxCell id="0" />
        <mxCell id="1" parent="0" />
        <mxCell id="23" value="" style="rounded=1;whiteSpace=wrap;html=1;arcSize=3;fillColor=#FAE5C7;strokeColor=#0F8B8D;fontColor=#143642;" parent="1" vertex="1">
          <mxGeometry x="10" y="130" width="440" height="250" as="geometry" />
        </mxCell>
        <mxCell id="2" value="courier-producer" style="rounded=0;whiteSpace=wrap;html=1;fillColor=#FAE5C7;strokeColor=#0F8B8D;fontColor=#143642;" parent="1" vertex="1">
          <mxGeometry x="40" y="190" width="115" height="60" as="geometry" />
        </mxCell>
        <mxCell id="20" value="电商集群消息总线" style="text;html=1;strokeColor=none;fillColor=none;align=center;verticalAlign=middle;whiteSpace=wrap;rounded=0;fontColor=#143642;" parent="1" vertex="1">
          <mxGeometry x="20" y="140" width="60" height="30" as="geometry" />
        </mxCell>
        <mxCell id="24" value="courier-consumer" style="rounded=0;whiteSpace=wrap;html=1;fillColor=#FAE5C7;strokeColor=#0F8B8D;fontColor=#143642;" parent="1" vertex="1">
          <mxGeometry x="190" y="190" width="115" height="60" as="geometry" />
        </mxCell>
        <mxCell id="25" value="courier-management" style="rounded=0;whiteSpace=wrap;html=1;fillColor=#FAE5C7;strokeColor=#0F8B8D;fontColor=#143642;" parent="1" vertex="1">
          <mxGeometry x="190" y="290" width="115" height="60" as="geometry" />
        </mxCell>
        <mxCell id="26" value="courier-delay" style="rounded=0;whiteSpace=wrap;html=1;fillColor=#FAE5C7;strokeColor=#0F8B8D;fontColor=#143642;" parent="1" vertex="1">
          <mxGeometry x="40" y="290" width="115" height="60" as="geometry" />
        </mxCell>
        <mxCell id="27" value="courier-agent" style="rounded=0;whiteSpace=wrap;html=1;fillColor=#FAE5C7;strokeColor=#0F8B8D;fontColor=#143642;" parent="1" vertex="1">
          <mxGeometry x="350" y="190" width="70" height="160" as="geometry" />
        </mxCell>
        <mxCell id="28" value="" style="rounded=1;whiteSpace=wrap;html=1;arcSize=3;fillColor=#FAE5C7;strokeColor=#0F8B8D;fontColor=#143642;" parent="1" vertex="1">
          <mxGeometry x="500" y="130" width="440" height="250" as="geometry" />
        </mxCell>
        <mxCell id="52" style="edgeStyle=orthogonalEdgeStyle;orthogonalLoop=1;jettySize=auto;html=1;exitX=1;exitY=0.25;exitDx=0;exitDy=0;entryX=0;entryY=0.5;entryDx=0;entryDy=0;dashed=1;fontColor=#143642;strokeColor=#A8201A;rounded=1;strokeWidth=2;labelBackgroundColor=#DAD2D8;" parent="1" source="27" target="29" edge="1">
          <mxGeometry relative="1" as="geometry">
            <Array as="points">
              <mxPoint x="490" y="230" />
              <mxPoint x="490" y="170" />
              <mxPoint x="620" y="170" />
              <mxPoint x="620" y="220" />
            </Array>
          </mxGeometry>
        </mxCell>
        <mxCell id="29" value="courier-producer" style="rounded=0;whiteSpace=wrap;html=1;fillColor=#FAE5C7;strokeColor=#0F8B8D;fontColor=#143642;" parent="1" vertex="1">
          <mxGeometry x="640" y="190" width="115" height="60" as="geometry" />
        </mxCell>
        <mxCell id="30" value="基础设施集群消息总线" style="text;html=1;strokeColor=none;fillColor=none;align=center;verticalAlign=middle;whiteSpace=wrap;rounded=0;fontColor=#143642;" parent="1" vertex="1">
          <mxGeometry x="620" y="140" width="80" height="30" as="geometry" />
        </mxCell>
        <mxCell id="31" value="courier-consumer" style="rounded=0;whiteSpace=wrap;html=1;fillColor=#FAE5C7;strokeColor=#0F8B8D;fontColor=#143642;" parent="1" vertex="1">
          <mxGeometry x="790" y="190" width="115" height="60" as="geometry" />
        </mxCell>
        <mxCell id="32" value="courier-management" style="rounded=0;whiteSpace=wrap;html=1;fillColor=#FAE5C7;strokeColor=#0F8B8D;fontColor=#143642;" parent="1" vertex="1">
          <mxGeometry x="790" y="290" width="115" height="60" as="geometry" />
        </mxCell>
        <mxCell id="33" value="courier-delay" style="rounded=0;whiteSpace=wrap;html=1;fillColor=#FAE5C7;strokeColor=#0F8B8D;fontColor=#143642;" parent="1" vertex="1">
          <mxGeometry x="640" y="290" width="115" height="60" as="geometry" />
        </mxCell>
        <mxCell id="34" value="courier-agent" style="rounded=0;whiteSpace=wrap;html=1;fillColor=#FAE5C7;strokeColor=#0F8B8D;fontColor=#143642;" parent="1" vertex="1">
          <mxGeometry x="530" y="190" width="70" height="160" as="geometry" />
        </mxCell>
        <mxCell id="49" style="edgeStyle=orthogonalEdgeStyle;shape=link;rounded=0;orthogonalLoop=1;jettySize=auto;html=1;exitX=0.5;exitY=0;exitDx=0;exitDy=0;entryX=0.5;entryY=0;entryDx=0;entryDy=0;dashed=1;fontColor=#143642;strokeColor=none;labelBackgroundColor=#DAD2D8;" parent="1" source="35" target="39" edge="1">
          <mxGeometry relative="1" as="geometry">
            <Array as="points">
              <mxPoint x="98" y="100" />
              <mxPoint x="698" y="100" />
            </Array>
          </mxGeometry>
        </mxCell>
        <mxCell id="51" style="edgeStyle=orthogonalEdgeStyle;rounded=1;orthogonalLoop=1;jettySize=auto;html=1;exitX=0.5;exitY=0;exitDx=0;exitDy=0;entryX=0;entryY=0.25;entryDx=0;entryDy=0;dashed=1;fontColor=#143642;strokeColor=#A8201A;strokeWidth=2;labelBackgroundColor=#DAD2D8;" parent="1" source="35" target="27" edge="1">
          <mxGeometry relative="1" as="geometry">
            <Array as="points">
              <mxPoint x="98" y="160" />
              <mxPoint x="330" y="160" />
              <mxPoint x="330" y="230" />
            </Array>
          </mxGeometry>
        </mxCell>
        <mxCell id="70" value="&lt;b&gt;&lt;font color=&quot;#336600&quot;&gt;订阅/发送消息&lt;/font&gt;&lt;/b&gt;" style="edgeLabel;html=1;align=center;verticalAlign=middle;resizable=0;points=[];fontColor=#143642;labelBackgroundColor=#DAD2D8;" parent="51" vertex="1" connectable="0">
          <mxGeometry x="-0.118" y="2" relative="1" as="geometry">
            <mxPoint x="-5" y="2" as="offset" />
          </mxGeometry>
        </mxCell>
        <mxCell id="35" value="&lt;b&gt;&lt;font color=&quot;#ff0000&quot; style=&quot;background-color: rgb(255, 204, 204);&quot;&gt;数据同步插件&lt;/font&gt;&lt;/b&gt;" style="rounded=1;whiteSpace=wrap;html=1;strokeWidth=2;fillWeight=4;hachureGap=8;hachureAngle=45;fillColor=#FAE5C7;sketch=1;strokeColor=#0F8B8D;fontColor=#143642;" parent="1" vertex="1">
          <mxGeometry x="52.5" y="240" width="90" height="30" as="geometry" />
        </mxCell>
        <mxCell id="36" value="&lt;b&gt;&lt;font style=&quot;background-color: rgb(255, 204, 204);&quot; color=&quot;#ff0000&quot;&gt;数据同步插件&lt;/font&gt;&lt;/b&gt;" style="rounded=1;whiteSpace=wrap;html=1;strokeWidth=2;fillWeight=4;hachureGap=8;hachureAngle=45;fillColor=#FAE5C7;sketch=1;strokeColor=#0F8B8D;fontColor=#143642;" parent="1" vertex="1">
          <mxGeometry x="202.5" y="240" width="90" height="30" as="geometry" />
        </mxCell>
        <mxCell id="55" style="edgeStyle=orthogonalEdgeStyle;rounded=1;orthogonalLoop=1;jettySize=auto;html=1;exitX=0.5;exitY=1;exitDx=0;exitDy=0;entryX=0;entryY=0.75;entryDx=0;entryDy=0;dashed=1;strokeColor=#A8201A;strokeWidth=2;fontColor=#143642;labelBackgroundColor=#DAD2D8;" parent="1" source="37" target="27" edge="1">
          <mxGeometry relative="1" as="geometry">
            <Array as="points">
              <mxPoint x="98" y="400" />
              <mxPoint x="330" y="400" />
              <mxPoint x="330" y="310" />
            </Array>
          </mxGeometry>
        </mxCell>
        <mxCell id="71" value="&lt;b&gt;&lt;font color=&quot;#a680b8&quot;&gt;延迟消息&lt;/font&gt;&lt;/b&gt;" style="edgeLabel;html=1;align=center;verticalAlign=middle;resizable=0;points=[];fontColor=#143642;labelBackgroundColor=#DAD2D8;" parent="55" vertex="1" connectable="0">
          <mxGeometry x="-0.3423" y="-1" relative="1" as="geometry">
            <mxPoint x="1" as="offset" />
          </mxGeometry>
        </mxCell>
        <mxCell id="37" value="&lt;b&gt;&lt;font style=&quot;background-color: rgb(255, 204, 204);&quot; color=&quot;#ff0000&quot;&gt;数据同步插件&lt;/font&gt;&lt;/b&gt;" style="rounded=1;whiteSpace=wrap;html=1;strokeWidth=2;fillWeight=4;hachureGap=8;hachureAngle=45;fillColor=#FAE5C7;sketch=1;strokeColor=#0F8B8D;fontColor=#143642;" parent="1" vertex="1">
          <mxGeometry x="52.5" y="340" width="90" height="30" as="geometry" />
        </mxCell>
        <mxCell id="72" style="edgeStyle=orthogonalEdgeStyle;rounded=1;orthogonalLoop=1;jettySize=auto;html=1;exitX=0.5;exitY=1;exitDx=0;exitDy=0;dashed=1;strokeColor=#A8201A;strokeWidth=2;fontColor=#143642;fillColor=#FAE5C7;labelBackgroundColor=#DAD2D8;" parent="1" source="38" target="32" edge="1">
          <mxGeometry relative="1" as="geometry">
            <Array as="points">
              <mxPoint x="248" y="390" />
              <mxPoint x="760" y="390" />
              <mxPoint x="760" y="320" />
            </Array>
          </mxGeometry>
        </mxCell>
        <mxCell id="73" value="&lt;b&gt;&lt;font color=&quot;#cc0066&quot;&gt;报告发送失败/消费失败/消费成功&lt;/font&gt;&lt;/b&gt;" style="edgeLabel;html=1;align=center;verticalAlign=middle;resizable=0;points=[];fontColor=#143642;labelBackgroundColor=#DAD2D8;" parent="72" vertex="1" connectable="0">
          <mxGeometry x="-0.2111" y="1" relative="1" as="geometry">
            <mxPoint x="1" as="offset" />
          </mxGeometry>
        </mxCell>
        <mxCell id="38" value="&lt;b&gt;&lt;font style=&quot;background-color: rgb(255, 204, 204);&quot; color=&quot;#ff0000&quot;&gt;数据同步插件&lt;/font&gt;&lt;/b&gt;" style="rounded=1;whiteSpace=wrap;html=1;strokeWidth=2;fillWeight=4;hachureGap=8;hachureAngle=45;fillColor=#FAE5C7;sketch=1;strokeColor=#0F8B8D;fontColor=#143642;" parent="1" vertex="1">
          <mxGeometry x="202.5" y="340" width="90" height="30" as="geometry" />
        </mxCell>
        <mxCell id="39" value="&lt;b&gt;&lt;font style=&quot;background-color: rgb(255, 204, 204);&quot; color=&quot;#ff0000&quot;&gt;数据同步插件&lt;/font&gt;&lt;/b&gt;" style="rounded=1;whiteSpace=wrap;html=1;strokeWidth=2;fillWeight=4;hachureGap=8;hachureAngle=45;fillColor=#FAE5C7;sketch=1;strokeColor=#0F8B8D;fontColor=#143642;" parent="1" vertex="1">
          <mxGeometry x="652.5" y="240" width="90" height="30" as="geometry" />
        </mxCell>
        <mxCell id="40" value="&lt;b&gt;&lt;font style=&quot;background-color: rgb(255, 204, 204);&quot; color=&quot;#ff0000&quot;&gt;数据同步插件&lt;/font&gt;&lt;/b&gt;" style="rounded=1;whiteSpace=wrap;html=1;strokeWidth=2;fillWeight=4;hachureGap=8;hachureAngle=45;fillColor=#FAE5C7;sketch=1;strokeColor=#0F8B8D;fontColor=#143642;" parent="1" vertex="1">
          <mxGeometry x="652.5" y="340" width="90" height="30" as="geometry" />
        </mxCell>
        <mxCell id="41" value="&lt;b&gt;&lt;font style=&quot;background-color: rgb(255, 204, 204);&quot; color=&quot;#ff0000&quot;&gt;数据同步插件&lt;/font&gt;&lt;/b&gt;" style="rounded=1;whiteSpace=wrap;html=1;strokeWidth=2;fillWeight=4;hachureGap=8;hachureAngle=45;fillColor=#FAE5C7;sketch=1;strokeColor=#0F8B8D;fontColor=#143642;" parent="1" vertex="1">
          <mxGeometry x="802.5" y="340" width="90" height="30" as="geometry" />
        </mxCell>
        <mxCell id="42" value="&lt;b&gt;&lt;font style=&quot;background-color: rgb(255, 204, 204);&quot; color=&quot;#ff0000&quot;&gt;数据同步插件&lt;/font&gt;&lt;/b&gt;" style="rounded=1;whiteSpace=wrap;html=1;strokeWidth=2;fillWeight=4;hachureGap=8;hachureAngle=45;fillColor=#FAE5C7;sketch=1;strokeColor=#0F8B8D;fontColor=#143642;" parent="1" vertex="1">
          <mxGeometry x="802.5" y="240" width="90" height="30" as="geometry" />
        </mxCell>
        <mxCell id="43" value="&lt;b&gt;&lt;font color=&quot;#000000&quot;&gt;电商集群&lt;br&gt;Kafka&lt;/font&gt;&lt;/b&gt;" style="ellipse;shape=cloud;whiteSpace=wrap;html=1;fontColor=#143642;fillColor=#FAE5C7;strokeColor=#0F8B8D;" parent="1" vertex="1">
          <mxGeometry x="142.5" y="440" width="120" height="80" as="geometry" />
        </mxCell>
        <mxCell id="44" value="&lt;b&gt;&lt;font color=&quot;#000000&quot;&gt;基础设施集群&lt;br&gt;Kafka&lt;/font&gt;&lt;/b&gt;" style="ellipse;shape=cloud;whiteSpace=wrap;html=1;fontColor=#143642;fillColor=#FAE5C7;strokeColor=#0F8B8D;" parent="1" vertex="1">
          <mxGeometry x="670" y="440" width="120" height="80" as="geometry" />
        </mxCell>
        <mxCell id="54" style="edgeStyle=orthogonalEdgeStyle;rounded=1;orthogonalLoop=1;jettySize=auto;html=1;exitX=0.5;exitY=0;exitDx=0;exitDy=0;dashed=1;strokeColor=#A8201A;strokeWidth=2;fontColor=#143642;labelBackgroundColor=#DAD2D8;" parent="1" source="36" target="31" edge="1">
          <mxGeometry relative="1" as="geometry">
            <mxPoint x="820" y="190" as="targetPoint" />
            <Array as="points">
              <mxPoint x="248" y="100" />
              <mxPoint x="830" y="100" />
            </Array>
          </mxGeometry>
        </mxCell>
        <mxCell id="57" value="&lt;font color=&quot;#0000ff&quot;&gt;&lt;b style=&quot;&quot;&gt;PULL Record（消费记录存档&lt;/b&gt;）&lt;/font&gt;" style="edgeLabel;html=1;align=center;verticalAlign=middle;resizable=0;points=[];fontColor=#143642;labelBackgroundColor=#DAD2D8;" parent="54" vertex="1" connectable="0">
          <mxGeometry x="-0.152" y="3" relative="1" as="geometry">
            <mxPoint x="78" y="3" as="offset" />
          </mxGeometry>
        </mxCell>
        <mxCell id="56" style="edgeStyle=orthogonalEdgeStyle;rounded=1;orthogonalLoop=1;jettySize=auto;html=1;exitX=1;exitY=0.75;exitDx=0;exitDy=0;entryX=0;entryY=0.5;entryDx=0;entryDy=0;dashed=1;strokeColor=#A8201A;strokeWidth=2;fontColor=#143642;labelBackgroundColor=#DAD2D8;" parent="1" source="27" target="33" edge="1">
          <mxGeometry relative="1" as="geometry">
            <Array as="points">
              <mxPoint x="520" y="310" />
              <mxPoint x="520" y="320" />
            </Array>
          </mxGeometry>
        </mxCell>
        <mxCell id="62" style="edgeStyle=orthogonalEdgeStyle;rounded=1;orthogonalLoop=1;jettySize=auto;html=1;exitX=0.75;exitY=0;exitDx=0;exitDy=0;dashed=1;strokeColor=#A8201A;strokeWidth=2;fontColor=#143642;entryX=0;entryY=0.5;entryDx=0;entryDy=0;labelBackgroundColor=#DAD2D8;" parent="1" source="36" target="34" edge="1">
          <mxGeometry relative="1" as="geometry">
            <mxPoint x="240" y="280" as="sourcePoint" />
            <mxPoint x="340" y="280" as="targetPoint" />
            <Array as="points">
              <mxPoint x="270" y="120" />
              <mxPoint x="480" y="120" />
              <mxPoint x="480" y="270" />
            </Array>
          </mxGeometry>
        </mxCell>
        <mxCell id="65" value="&lt;b&gt;&lt;font color=&quot;#0000ff&quot;&gt;PULL 广播消息&lt;/font&gt;&lt;/b&gt;" style="edgeLabel;html=1;align=center;verticalAlign=middle;resizable=0;points=[];fontColor=#143642;labelBackgroundColor=#DAD2D8;" parent="62" vertex="1" connectable="0">
          <mxGeometry x="0.0204" y="1" relative="1" as="geometry">
            <mxPoint x="-40" y="1" as="offset" />
          </mxGeometry>
        </mxCell>
      </root>
    </mxGraphModel>
  </diagram>
  <diagram id="48plDCBX0eDqBpxswiQl" name="第 2 页">
    <mxGraphModel dx="10540" dy="5134" grid="0" gridSize="10" guides="1" tooltips="1" connect="1" arrows="1" fold="1" page="0" pageScale="1" pageWidth="3300" pageHeight="2339" background="#F4F1DE" math="0" shadow="0">
      <root>
        <mxCell id="0" />
        <mxCell id="1" parent="0" />
        <mxCell id="92rEHbwfL_dCJVszTuG9-93" value="" style="rounded=0;whiteSpace=wrap;html=1;dashed=1;dashPattern=1 4;sketch=1;hachureGap=4;strokeColor=#E07A5F;fontFamily=Architects Daughter;fontSource=https%3A%2F%2Ffonts.googleapis.com%2Fcss%3Ffamily%3DArchitects%2BDaughter;fontSize=12;fontColor=#393C56;fillColor=#F2CC8F;" parent="1" vertex="1">
          <mxGeometry x="-6618.5" y="-1776" width="634.5" height="179" as="geometry" />
        </mxCell>
        <mxCell id="92rEHbwfL_dCJVszTuG9-91" value="" style="rounded=0;whiteSpace=wrap;html=1;dashed=1;dashPattern=1 4;sketch=1;hachureGap=4;strokeColor=#E07A5F;fontFamily=Architects Daughter;fontSource=https%3A%2F%2Ffonts.googleapis.com%2Fcss%3Ffamily%3DArchitects%2BDaughter;fontSize=12;fontColor=#393C56;fillColor=#F2CC8F;" parent="1" vertex="1">
          <mxGeometry x="-6619" y="-2040" width="637" height="232" as="geometry" />
        </mxCell>
        <mxCell id="92rEHbwfL_dCJVszTuG9-88" value="" style="rounded=0;whiteSpace=wrap;html=1;sketch=1;hachureGap=4;strokeColor=#E07A5F;fontFamily=Architects Daughter;fontSource=https%3A%2F%2Ffonts.googleapis.com%2Fcss%3Ffamily%3DArchitects%2BDaughter;fontSize=12;fontColor=#393C56;fillColor=#F2CC8F;dashed=1;dashPattern=1 4;" parent="1" vertex="1">
          <mxGeometry x="-6619" y="-2270" width="635" height="205" as="geometry" />
        </mxCell>
        <mxCell id="92rEHbwfL_dCJVszTuG9-85" value="" style="rounded=0;whiteSpace=wrap;html=1;hachureGap=4;sketch=1;fillColor=#1ba1e2;strokeColor=#006EAF;fontColor=#ffffff;" parent="1" vertex="1">
          <mxGeometry x="-6596" y="-2133" width="217" height="50" as="geometry" />
        </mxCell>
        <mxCell id="92rEHbwfL_dCJVszTuG9-7" style="edgeStyle=none;sketch=1;hachureGap=4;orthogonalLoop=1;jettySize=auto;html=1;exitX=1;exitY=0.5;exitDx=0;exitDy=0;entryX=0;entryY=0.5;entryDx=0;entryDy=0;strokeColor=#E07A5F;fontFamily=Architects Daughter;fontSource=https%3A%2F%2Ffonts.googleapis.com%2Fcss%3Ffamily%3DArchitects%2BDaughter;fontSize=16;fontColor=#393C56;endArrow=open;endFill=0;startSize=14;endSize=14;sourcePerimeterSpacing=8;targetPerimeterSpacing=8;fillColor=#F2CC8F;" parent="1" source="F3UbSJSfpy2J_6zOCh7w-1" target="92rEHbwfL_dCJVszTuG9-1" edge="1">
          <mxGeometry relative="1" as="geometry" />
        </mxCell>
        <mxCell id="92rEHbwfL_dCJVszTuG9-12" value="RPC" style="edgeLabel;html=1;align=center;verticalAlign=middle;resizable=0;points=[];fontSize=12;fontFamily=Architects Daughter;fontColor=#393C56;" parent="92rEHbwfL_dCJVszTuG9-7" vertex="1" connectable="0">
          <mxGeometry x="-0.1903" y="2" relative="1" as="geometry">
            <mxPoint as="offset" />
          </mxGeometry>
        </mxCell>
        <mxCell id="F3UbSJSfpy2J_6zOCh7w-1" value="订单服务" style="rounded=0;whiteSpace=wrap;html=1;hachureGap=4;sketch=1;fillColor=#F2CC8F;strokeColor=#E07A5F;fontColor=#393C56;" parent="1" vertex="1">
          <mxGeometry x="-6573" y="-2601.54" width="99" height="45" as="geometry" />
        </mxCell>
        <mxCell id="92rEHbwfL_dCJVszTuG9-28" style="edgeStyle=none;sketch=1;hachureGap=4;orthogonalLoop=1;jettySize=auto;html=1;exitX=0.25;exitY=1;exitDx=0;exitDy=0;entryX=0.25;entryY=0;entryDx=0;entryDy=0;shadow=0;strokeColor=#E07A5F;fontFamily=Architects Daughter;fontSource=https%3A%2F%2Ffonts.googleapis.com%2Fcss%3Ffamily%3DArchitects%2BDaughter;fontSize=12;fontColor=#393C56;endArrow=open;endFill=0;sourcePerimeterSpacing=8;targetPerimeterSpacing=8;fillColor=#F2CC8F;" parent="1" source="92rEHbwfL_dCJVszTuG9-1" target="92rEHbwfL_dCJVszTuG9-2" edge="1">
          <mxGeometry relative="1" as="geometry" />
        </mxCell>
        <mxCell id="92rEHbwfL_dCJVszTuG9-1" value="消息生产" style="rounded=0;whiteSpace=wrap;html=1;hachureGap=4;sketch=1;fillColor=#cdeb8b;strokeColor=#36393d;" parent="1" vertex="1">
          <mxGeometry x="-6314" y="-2601.54" width="99" height="45" as="geometry" />
        </mxCell>
        <mxCell id="92rEHbwfL_dCJVszTuG9-29" style="edgeStyle=none;sketch=1;hachureGap=4;orthogonalLoop=1;jettySize=auto;html=1;exitX=0.25;exitY=1;exitDx=0;exitDy=0;entryX=0.25;entryY=0;entryDx=0;entryDy=0;shadow=0;strokeColor=#E07A5F;fontFamily=Architects Daughter;fontSource=https%3A%2F%2Ffonts.googleapis.com%2Fcss%3Ffamily%3DArchitects%2BDaughter;fontSize=12;fontColor=#393C56;endArrow=open;endFill=0;sourcePerimeterSpacing=8;targetPerimeterSpacing=8;fillColor=#F2CC8F;" parent="1" source="92rEHbwfL_dCJVszTuG9-2" target="92rEHbwfL_dCJVszTuG9-3" edge="1">
          <mxGeometry relative="1" as="geometry" />
        </mxCell>
        <mxCell id="92rEHbwfL_dCJVszTuG9-30" style="edgeStyle=none;sketch=1;hachureGap=4;orthogonalLoop=1;jettySize=auto;html=1;exitX=0.75;exitY=0;exitDx=0;exitDy=0;entryX=0.75;entryY=1;entryDx=0;entryDy=0;shadow=0;strokeColor=#E07A5F;fontFamily=Architects Daughter;fontSource=https%3A%2F%2Ffonts.googleapis.com%2Fcss%3Ffamily%3DArchitects%2BDaughter;fontSize=12;fontColor=#393C56;endArrow=open;endFill=0;sourcePerimeterSpacing=8;targetPerimeterSpacing=8;fillColor=#F2CC8F;" parent="1" source="92rEHbwfL_dCJVszTuG9-2" target="92rEHbwfL_dCJVszTuG9-1" edge="1">
          <mxGeometry relative="1" as="geometry" />
        </mxCell>
        <mxCell id="92rEHbwfL_dCJVszTuG9-2" value="Kafka集群" style="rounded=0;whiteSpace=wrap;html=1;hachureGap=4;sketch=1;fillColor=#cdeb8b;strokeColor=#36393d;" parent="1" vertex="1">
          <mxGeometry x="-6314" y="-2522" width="99" height="45" as="geometry" />
        </mxCell>
        <mxCell id="92rEHbwfL_dCJVszTuG9-10" style="edgeStyle=none;sketch=1;hachureGap=4;orthogonalLoop=1;jettySize=auto;html=1;exitX=1;exitY=0.5;exitDx=0;exitDy=0;entryX=0;entryY=0.5;entryDx=0;entryDy=0;strokeColor=#E07A5F;fontFamily=Architects Daughter;fontSource=https%3A%2F%2Ffonts.googleapis.com%2Fcss%3Ffamily%3DArchitects%2BDaughter;fontSize=12;fontColor=#393C56;endArrow=open;endFill=0;startSize=14;endSize=14;sourcePerimeterSpacing=8;targetPerimeterSpacing=8;fillColor=#F2CC8F;" parent="1" source="92rEHbwfL_dCJVszTuG9-3" target="92rEHbwfL_dCJVszTuG9-9" edge="1">
          <mxGeometry relative="1" as="geometry" />
        </mxCell>
        <mxCell id="92rEHbwfL_dCJVszTuG9-11" value="RPC" style="edgeLabel;html=1;align=center;verticalAlign=middle;resizable=0;points=[];fontSize=12;fontFamily=Architects Daughter;fontColor=#393C56;" parent="92rEHbwfL_dCJVszTuG9-10" vertex="1" connectable="0">
          <mxGeometry x="0.1089" y="-1" relative="1" as="geometry">
            <mxPoint as="offset" />
          </mxGeometry>
        </mxCell>
        <mxCell id="92rEHbwfL_dCJVszTuG9-27" style="edgeStyle=none;sketch=1;hachureGap=4;orthogonalLoop=1;jettySize=auto;html=1;exitX=0.75;exitY=0;exitDx=0;exitDy=0;entryX=0.75;entryY=1;entryDx=0;entryDy=0;shadow=0;strokeColor=#E07A5F;fontFamily=Architects Daughter;fontSource=https%3A%2F%2Ffonts.googleapis.com%2Fcss%3Ffamily%3DArchitects%2BDaughter;fontSize=12;fontColor=#393C56;endArrow=open;endFill=0;sourcePerimeterSpacing=8;targetPerimeterSpacing=8;fillColor=#F2CC8F;" parent="1" source="92rEHbwfL_dCJVszTuG9-3" target="92rEHbwfL_dCJVszTuG9-2" edge="1">
          <mxGeometry relative="1" as="geometry" />
        </mxCell>
        <mxCell id="92rEHbwfL_dCJVszTuG9-3" value="消息消费" style="rounded=0;whiteSpace=wrap;html=1;hachureGap=4;sketch=1;fillColor=#cdeb8b;strokeColor=#36393d;" parent="1" vertex="1">
          <mxGeometry x="-6314" y="-2441.54" width="99" height="45" as="geometry" />
        </mxCell>
        <mxCell id="92rEHbwfL_dCJVszTuG9-9" value="用户服务" style="rounded=0;whiteSpace=wrap;html=1;hachureGap=4;sketch=1;fillColor=#F2CC8F;strokeColor=#E07A5F;fontColor=#393C56;" parent="1" vertex="1">
          <mxGeometry x="-6050" y="-2441.54" width="99" height="45" as="geometry" />
        </mxCell>
        <mxCell id="92rEHbwfL_dCJVszTuG9-14" value="" style="edgeStyle=none;orthogonalLoop=1;jettySize=auto;html=1;sketch=0;hachureGap=4;strokeColor=#0e8088;fontFamily=Architects Daughter;fontSource=https%3A%2F%2Ffonts.googleapis.com%2Fcss%3Ffamily%3DArchitects%2BDaughter;fontSize=12;fontColor=#393C56;endArrow=none;endFill=0;startSize=14;endSize=14;sourcePerimeterSpacing=8;targetPerimeterSpacing=8;fillColor=#b0e3e6;dashed=1;dashPattern=1 4;" parent="1" edge="1">
          <mxGeometry width="120" relative="1" as="geometry">
            <mxPoint x="-6342" y="-2626" as="sourcePoint" />
            <mxPoint x="-6342" y="-2364" as="targetPoint" />
            <Array as="points" />
          </mxGeometry>
        </mxCell>
        <mxCell id="92rEHbwfL_dCJVszTuG9-15" value="" style="edgeStyle=none;orthogonalLoop=1;jettySize=auto;html=1;sketch=0;hachureGap=4;strokeColor=#0e8088;fontFamily=Architects Daughter;fontSource=https%3A%2F%2Ffonts.googleapis.com%2Fcss%3Ffamily%3DArchitects%2BDaughter;fontSize=12;fontColor=#393C56;endArrow=none;endFill=0;startSize=14;endSize=14;sourcePerimeterSpacing=8;targetPerimeterSpacing=8;fillColor=#b0e3e6;dashed=1;dashPattern=1 4;" parent="1" edge="1">
          <mxGeometry width="120" relative="1" as="geometry">
            <mxPoint x="-6194" y="-2622" as="sourcePoint" />
            <mxPoint x="-6194" y="-2360" as="targetPoint" />
            <Array as="points" />
          </mxGeometry>
        </mxCell>
        <mxCell id="92rEHbwfL_dCJVszTuG9-16" value="消息服务" style="text;html=1;align=center;verticalAlign=middle;resizable=0;points=[];autosize=1;strokeColor=none;fillColor=none;dashed=1;sketch=1;hachureGap=4;fontFamily=Architects Daughter;fontSource=https%3A%2F%2Ffonts.googleapis.com%2Fcss%3Ffamily%3DArchitects%2BDaughter;fontSize=12;fontColor=#393C56;" parent="1" vertex="1">
          <mxGeometry x="-6297.5" y="-2673" width="66" height="26" as="geometry" />
        </mxCell>
        <mxCell id="92rEHbwfL_dCJVszTuG9-17" value="" style="edgeStyle=none;orthogonalLoop=1;jettySize=auto;html=1;sketch=0;hachureGap=4;strokeColor=#b46504;fontFamily=Architects Daughter;fontSource=https%3A%2F%2Ffonts.googleapis.com%2Fcss%3Ffamily%3DArchitects%2BDaughter;fontSize=12;fontColor=#393C56;endArrow=none;endFill=0;startSize=14;endSize=14;sourcePerimeterSpacing=8;targetPerimeterSpacing=8;fillColor=#fad7ac;dashed=1;dashPattern=1 4;" parent="1" edge="1">
          <mxGeometry width="120" relative="1" as="geometry">
            <mxPoint x="-6589" y="-2622" as="sourcePoint" />
            <mxPoint x="-6589" y="-2360" as="targetPoint" />
            <Array as="points" />
          </mxGeometry>
        </mxCell>
        <mxCell id="92rEHbwfL_dCJVszTuG9-18" value="" style="edgeStyle=none;orthogonalLoop=1;jettySize=auto;html=1;sketch=0;hachureGap=4;strokeColor=#b46504;fontFamily=Architects Daughter;fontSource=https%3A%2F%2Ffonts.googleapis.com%2Fcss%3Ffamily%3DArchitects%2BDaughter;fontSize=12;fontColor=#393C56;endArrow=none;endFill=0;startSize=14;endSize=14;sourcePerimeterSpacing=8;targetPerimeterSpacing=8;fillColor=#fad7ac;dashed=1;dashPattern=1 4;" parent="1" edge="1">
          <mxGeometry width="120" relative="1" as="geometry">
            <mxPoint x="-6460" y="-2622" as="sourcePoint" />
            <mxPoint x="-6460" y="-2360" as="targetPoint" />
            <Array as="points" />
          </mxGeometry>
        </mxCell>
        <mxCell id="92rEHbwfL_dCJVszTuG9-19" value="" style="edgeStyle=none;orthogonalLoop=1;jettySize=auto;html=1;sketch=0;hachureGap=4;strokeColor=#b46504;fontFamily=Architects Daughter;fontSource=https%3A%2F%2Ffonts.googleapis.com%2Fcss%3Ffamily%3DArchitects%2BDaughter;fontSize=12;fontColor=#393C56;endArrow=none;endFill=0;startSize=14;endSize=14;sourcePerimeterSpacing=8;targetPerimeterSpacing=8;fillColor=#fad7ac;dashed=1;dashPattern=1 4;" parent="1" edge="1">
          <mxGeometry width="120" relative="1" as="geometry">
            <mxPoint x="-6075" y="-2620" as="sourcePoint" />
            <mxPoint x="-6075" y="-2358" as="targetPoint" />
            <Array as="points" />
          </mxGeometry>
        </mxCell>
        <mxCell id="92rEHbwfL_dCJVszTuG9-20" value="" style="edgeStyle=none;orthogonalLoop=1;jettySize=auto;html=1;sketch=0;hachureGap=4;strokeColor=#b46504;fontFamily=Architects Daughter;fontSource=https%3A%2F%2Ffonts.googleapis.com%2Fcss%3Ffamily%3DArchitects%2BDaughter;fontSize=12;fontColor=#393C56;endArrow=none;endFill=0;startSize=14;endSize=14;sourcePerimeterSpacing=8;targetPerimeterSpacing=8;fillColor=#fad7ac;dashed=1;dashPattern=1 4;shadow=0;" parent="1" edge="1">
          <mxGeometry width="120" relative="1" as="geometry">
            <mxPoint x="-5931" y="-2625" as="sourcePoint" />
            <mxPoint x="-5931" y="-2363" as="targetPoint" />
            <Array as="points" />
          </mxGeometry>
        </mxCell>
        <mxCell id="92rEHbwfL_dCJVszTuG9-21" value="团队A" style="text;html=1;align=center;verticalAlign=middle;resizable=0;points=[];autosize=1;strokeColor=none;fillColor=none;dashed=1;sketch=1;hachureGap=4;fontFamily=Architects Daughter;fontSource=https%3A%2F%2Ffonts.googleapis.com%2Fcss%3Ffamily%3DArchitects%2BDaughter;fontSize=12;fontColor=#393C56;" parent="1" vertex="1">
          <mxGeometry x="-6545" y="-2673" width="50" height="26" as="geometry" />
        </mxCell>
        <mxCell id="92rEHbwfL_dCJVszTuG9-22" value="团队B" style="text;html=1;align=center;verticalAlign=middle;resizable=0;points=[];autosize=1;strokeColor=none;fillColor=none;dashed=1;sketch=1;hachureGap=4;fontFamily=Architects Daughter;fontSource=https%3A%2F%2Ffonts.googleapis.com%2Fcss%3Ffamily%3DArchitects%2BDaughter;fontSize=12;fontColor=#393C56;" parent="1" vertex="1">
          <mxGeometry x="-6031" y="-2673" width="51" height="26" as="geometry" />
        </mxCell>
        <mxCell id="92rEHbwfL_dCJVszTuG9-25" value="" style="edgeStyle=none;orthogonalLoop=1;jettySize=auto;html=1;rounded=1;shadow=0;sketch=1;hachureGap=4;strokeColor=#E07A5F;fontFamily=Architects Daughter;fontSource=https%3A%2F%2Ffonts.googleapis.com%2Fcss%3Ffamily%3DArchitects%2BDaughter;fontSize=12;fontColor=#393C56;endArrow=open;endFill=0;sourcePerimeterSpacing=8;targetPerimeterSpacing=8;fillColor=#F2CC8F;entryX=0;entryY=0.5;entryDx=0;entryDy=0;shape=flexArrow;startArrow=none;startFill=0;strokeWidth=1;endSize=6;startSize=6;" parent="1" target="F3UbSJSfpy2J_6zOCh7w-1" edge="1">
          <mxGeometry width="140" relative="1" as="geometry">
            <mxPoint x="-6667" y="-2579" as="sourcePoint" />
            <mxPoint x="-6573" y="-2579.38" as="targetPoint" />
            <Array as="points" />
          </mxGeometry>
        </mxCell>
        <mxCell id="92rEHbwfL_dCJVszTuG9-26" value="下单" style="edgeLabel;html=1;align=center;verticalAlign=middle;resizable=0;points=[];fontSize=12;fontFamily=Architects Daughter;fontColor=#393C56;" parent="92rEHbwfL_dCJVszTuG9-25" vertex="1" connectable="0">
          <mxGeometry x="-0.1133" relative="1" as="geometry">
            <mxPoint as="offset" />
          </mxGeometry>
        </mxCell>
        <mxCell id="92rEHbwfL_dCJVszTuG9-35" style="edgeStyle=none;sketch=1;hachureGap=4;orthogonalLoop=1;jettySize=auto;html=1;exitX=0.25;exitY=1;exitDx=0;exitDy=0;entryX=0.25;entryY=0;entryDx=0;entryDy=0;shadow=0;strokeColor=#E07A5F;fontFamily=Architects Daughter;fontSource=https%3A%2F%2Ffonts.googleapis.com%2Fcss%3Ffamily%3DArchitects%2BDaughter;fontSize=12;fontColor=#393C56;endArrow=open;endFill=0;sourcePerimeterSpacing=8;targetPerimeterSpacing=8;fillColor=#F2CC8F;" parent="1" source="92rEHbwfL_dCJVszTuG9-36" target="92rEHbwfL_dCJVszTuG9-39" edge="1">
          <mxGeometry relative="1" as="geometry" />
        </mxCell>
        <mxCell id="92rEHbwfL_dCJVszTuG9-80" style="edgeStyle=none;shape=connector;sketch=1;hachureGap=4;orthogonalLoop=1;jettySize=auto;html=1;exitX=1;exitY=0.5;exitDx=0;exitDy=0;entryX=0;entryY=0.5;entryDx=0;entryDy=0;entryPerimeter=0;shadow=0;labelBackgroundColor=default;strokeColor=#E07A5F;fontFamily=Architects Daughter;fontSource=https%3A%2F%2Ffonts.googleapis.com%2Fcss%3Ffamily%3DArchitects%2BDaughter;fontSize=12;fontColor=#393C56;endArrow=open;endFill=0;startSize=2;endSize=6;sourcePerimeterSpacing=8;targetPerimeterSpacing=8;fillColor=#F2CC8F;curved=1;" parent="1" source="92rEHbwfL_dCJVszTuG9-36" target="92rEHbwfL_dCJVszTuG9-70" edge="1">
          <mxGeometry relative="1" as="geometry" />
        </mxCell>
        <mxCell id="92rEHbwfL_dCJVszTuG9-81" value="消息存储" style="edgeLabel;html=1;align=center;verticalAlign=middle;resizable=0;points=[];fontSize=12;fontFamily=Architects Daughter;fontColor=#393C56;" parent="92rEHbwfL_dCJVszTuG9-80" vertex="1" connectable="0">
          <mxGeometry x="0.0985" y="1" relative="1" as="geometry">
            <mxPoint as="offset" />
          </mxGeometry>
        </mxCell>
        <mxCell id="92rEHbwfL_dCJVszTuG9-36" value="消息生产" style="rounded=0;whiteSpace=wrap;html=1;hachureGap=4;sketch=1;fillColor=#cdeb8b;strokeColor=#36393d;" parent="1" vertex="1">
          <mxGeometry x="-6590" y="-2013" width="99" height="45" as="geometry" />
        </mxCell>
        <mxCell id="92rEHbwfL_dCJVszTuG9-37" style="edgeStyle=none;sketch=1;hachureGap=4;orthogonalLoop=1;jettySize=auto;html=1;exitX=0.25;exitY=1;exitDx=0;exitDy=0;entryX=0.114;entryY=0.038;entryDx=0;entryDy=0;shadow=0;strokeColor=#E07A5F;fontFamily=Architects Daughter;fontSource=https%3A%2F%2Ffonts.googleapis.com%2Fcss%3Ffamily%3DArchitects%2BDaughter;fontSize=12;fontColor=#393C56;endArrow=open;endFill=0;sourcePerimeterSpacing=8;targetPerimeterSpacing=8;fillColor=#F2CC8F;entryPerimeter=0;" parent="1" source="92rEHbwfL_dCJVszTuG9-39" target="92rEHbwfL_dCJVszTuG9-43" edge="1">
          <mxGeometry relative="1" as="geometry" />
        </mxCell>
        <mxCell id="92rEHbwfL_dCJVszTuG9-38" style="edgeStyle=none;sketch=1;hachureGap=4;orthogonalLoop=1;jettySize=auto;html=1;exitX=0.75;exitY=0;exitDx=0;exitDy=0;entryX=0.75;entryY=1;entryDx=0;entryDy=0;shadow=0;strokeColor=#E07A5F;fontFamily=Architects Daughter;fontSource=https%3A%2F%2Ffonts.googleapis.com%2Fcss%3Ffamily%3DArchitects%2BDaughter;fontSize=12;fontColor=#393C56;endArrow=open;endFill=0;sourcePerimeterSpacing=8;targetPerimeterSpacing=8;fillColor=#F2CC8F;" parent="1" source="92rEHbwfL_dCJVszTuG9-39" target="92rEHbwfL_dCJVszTuG9-36" edge="1">
          <mxGeometry relative="1" as="geometry" />
        </mxCell>
        <mxCell id="92rEHbwfL_dCJVszTuG9-39" value="Kafka集群" style="rounded=0;whiteSpace=wrap;html=1;hachureGap=4;sketch=1;fillColor=#cdeb8b;strokeColor=#36393d;" parent="1" vertex="1">
          <mxGeometry x="-6590" y="-1938" width="99" height="45" as="geometry" />
        </mxCell>
        <mxCell id="92rEHbwfL_dCJVszTuG9-40" style="edgeStyle=none;sketch=1;hachureGap=4;orthogonalLoop=1;jettySize=auto;html=1;entryX=0.75;entryY=0;entryDx=0;entryDy=0;strokeColor=#E07A5F;fontFamily=Architects Daughter;fontSource=https%3A%2F%2Ffonts.googleapis.com%2Fcss%3Ffamily%3DArchitects%2BDaughter;fontSize=12;fontColor=#393C56;endArrow=open;endFill=0;startSize=14;endSize=8;sourcePerimeterSpacing=8;targetPerimeterSpacing=8;fillColor=#F2CC8F;exitX=0.151;exitY=0.974;exitDx=0;exitDy=0;exitPerimeter=0;" parent="1" source="92rEHbwfL_dCJVszTuG9-43" target="92rEHbwfL_dCJVszTuG9-107" edge="1">
          <mxGeometry relative="1" as="geometry">
            <mxPoint x="-6543" y="-1822" as="sourcePoint" />
          </mxGeometry>
        </mxCell>
        <mxCell id="92rEHbwfL_dCJVszTuG9-41" value="推送消息" style="edgeLabel;html=1;align=center;verticalAlign=middle;resizable=0;points=[];fontSize=12;fontFamily=Architects Daughter;fontColor=#393C56;" parent="92rEHbwfL_dCJVszTuG9-40" vertex="1" connectable="0">
          <mxGeometry x="0.1089" y="-1" relative="1" as="geometry">
            <mxPoint x="1" y="-13" as="offset" />
          </mxGeometry>
        </mxCell>
        <mxCell id="92rEHbwfL_dCJVszTuG9-42" style="edgeStyle=none;sketch=1;hachureGap=4;orthogonalLoop=1;jettySize=auto;html=1;exitX=0.333;exitY=-0.037;exitDx=0;exitDy=0;entryX=0.75;entryY=1;entryDx=0;entryDy=0;shadow=0;strokeColor=#E07A5F;fontFamily=Architects Daughter;fontSource=https%3A%2F%2Ffonts.googleapis.com%2Fcss%3Ffamily%3DArchitects%2BDaughter;fontSize=12;fontColor=#393C56;endArrow=open;endFill=0;sourcePerimeterSpacing=8;targetPerimeterSpacing=8;fillColor=#F2CC8F;exitPerimeter=0;" parent="1" source="92rEHbwfL_dCJVszTuG9-43" target="92rEHbwfL_dCJVszTuG9-39" edge="1">
          <mxGeometry relative="1" as="geometry" />
        </mxCell>
        <mxCell id="92rEHbwfL_dCJVszTuG9-114" style="edgeStyle=none;shape=connector;curved=1;rounded=1;sketch=1;hachureGap=4;orthogonalLoop=1;jettySize=auto;html=1;exitX=1;exitY=0.5;exitDx=0;exitDy=0;entryX=0;entryY=0;entryDx=0;entryDy=46.5;entryPerimeter=0;shadow=0;labelBackgroundColor=default;strokeColor=#E07A5F;fontFamily=Architects Daughter;fontSource=https%3A%2F%2Ffonts.googleapis.com%2Fcss%3Ffamily%3DArchitects%2BDaughter;fontSize=12;fontColor=#000000;endArrow=open;endFill=0;startSize=2;endSize=8;sourcePerimeterSpacing=8;targetPerimeterSpacing=8;fillColor=#F2CC8F;" parent="1" source="92rEHbwfL_dCJVszTuG9-43" target="92rEHbwfL_dCJVszTuG9-70" edge="1">
          <mxGeometry relative="1" as="geometry" />
        </mxCell>
        <mxCell id="92rEHbwfL_dCJVszTuG9-115" value="消费记录" style="edgeLabel;html=1;align=center;verticalAlign=middle;resizable=0;points=[];fontSize=12;fontFamily=Architects Daughter;fontColor=#000000;" parent="92rEHbwfL_dCJVszTuG9-114" vertex="1" connectable="0">
          <mxGeometry x="-0.1393" y="-2" relative="1" as="geometry">
            <mxPoint as="offset" />
          </mxGeometry>
        </mxCell>
        <mxCell id="92rEHbwfL_dCJVszTuG9-43" value="" style="rounded=0;whiteSpace=wrap;html=1;hachureGap=4;sketch=1;fillColor=#cdeb8b;strokeColor=#36393d;" parent="1" vertex="1">
          <mxGeometry x="-6590" y="-1867.54" width="224" height="44.54" as="geometry" />
        </mxCell>
        <mxCell id="92rEHbwfL_dCJVszTuG9-44" value="执行消息业务" style="rounded=0;whiteSpace=wrap;html=1;hachureGap=4;sketch=1;fillColor=#F2CC8F;strokeColor=#E07A5F;fontColor=#393C56;" parent="1" vertex="1">
          <mxGeometry x="-6590" y="-1658" width="99" height="45" as="geometry" />
        </mxCell>
        <mxCell id="92rEHbwfL_dCJVszTuG9-47" value="消息服务" style="text;html=1;align=center;verticalAlign=middle;resizable=0;points=[];autosize=1;strokeColor=none;fillColor=none;dashed=1;sketch=1;hachureGap=4;fontFamily=Architects Daughter;fontSource=https%3A%2F%2Ffonts.googleapis.com%2Fcss%3Ffamily%3DArchitects%2BDaughter;fontSize=12;fontColor=#393C56;" parent="1" vertex="1">
          <mxGeometry x="-6624" y="-2040" width="66" height="26" as="geometry" />
        </mxCell>
        <mxCell id="92rEHbwfL_dCJVszTuG9-54" value="" style="edgeStyle=none;orthogonalLoop=1;jettySize=auto;html=1;rounded=1;shadow=0;sketch=1;hachureGap=4;strokeColor=#E07A5F;fontFamily=Architects Daughter;fontSource=https%3A%2F%2Ffonts.googleapis.com%2Fcss%3Ffamily%3DArchitects%2BDaughter;fontSize=12;fontColor=#393C56;endArrow=open;endFill=0;sourcePerimeterSpacing=8;targetPerimeterSpacing=8;fillColor=#F2CC8F;shape=flexArrow;startArrow=none;startFill=0;strokeWidth=1;endSize=6;startSize=6;entryX=0;entryY=0.25;entryDx=0;entryDy=0;" parent="1" target="92rEHbwfL_dCJVszTuG9-88" edge="1">
          <mxGeometry width="140" relative="1" as="geometry">
            <mxPoint x="-6741" y="-2219" as="sourcePoint" />
            <mxPoint x="-6648" y="-2195" as="targetPoint" />
            <Array as="points" />
          </mxGeometry>
        </mxCell>
        <mxCell id="92rEHbwfL_dCJVszTuG9-55" value="下单" style="edgeLabel;html=1;align=center;verticalAlign=middle;resizable=0;points=[];fontSize=12;fontFamily=Architects Daughter;fontColor=#393C56;" parent="92rEHbwfL_dCJVszTuG9-54" vertex="1" connectable="0">
          <mxGeometry x="-0.1133" relative="1" as="geometry">
            <mxPoint as="offset" />
          </mxGeometry>
        </mxCell>
        <mxCell id="92rEHbwfL_dCJVszTuG9-70" value="消息数据库" style="shape=cylinder3;whiteSpace=wrap;html=1;boundedLbl=1;backgroundOutline=1;size=15;sketch=1;hachureGap=4;strokeColor=#0e8088;fontFamily=Architects Daughter;fontSource=https%3A%2F%2Ffonts.googleapis.com%2Fcss%3Ffamily%3DArchitects%2BDaughter;fontSize=12;fillColor=#b0e3e6;" parent="1" vertex="1">
          <mxGeometry x="-6169" y="-1992" width="96" height="72" as="geometry" />
        </mxCell>
        <mxCell id="92rEHbwfL_dCJVszTuG9-75" style="edgeStyle=none;shape=connector;sketch=1;hachureGap=4;orthogonalLoop=1;jettySize=auto;html=1;exitX=0.5;exitY=1;exitDx=0;exitDy=0;entryX=0.75;entryY=0;entryDx=0;entryDy=0;shadow=0;labelBackgroundColor=default;strokeColor=#006EAF;fontFamily=Architects Daughter;fontSource=https%3A%2F%2Ffonts.googleapis.com%2Fcss%3Ffamily%3DArchitects%2BDaughter;fontSize=12;fontColor=#393C56;endArrow=open;endFill=0;sourcePerimeterSpacing=8;targetPerimeterSpacing=8;fillColor=#1ba1e2;rounded=1;" parent="1" source="92rEHbwfL_dCJVszTuG9-74" target="92rEHbwfL_dCJVszTuG9-36" edge="1">
          <mxGeometry relative="1" as="geometry" />
        </mxCell>
        <mxCell id="92rEHbwfL_dCJVszTuG9-74" value="发送失败重试" style="rounded=0;whiteSpace=wrap;html=1;hachureGap=4;sketch=1;" parent="1" vertex="1">
          <mxGeometry x="-6439" y="-2127.5" width="44" height="39" as="geometry" />
        </mxCell>
        <mxCell id="92rEHbwfL_dCJVszTuG9-102" style="edgeStyle=none;shape=connector;curved=1;rounded=1;sketch=1;hachureGap=4;orthogonalLoop=1;jettySize=auto;html=1;exitX=0.5;exitY=1;exitDx=0;exitDy=0;entryX=0.5;entryY=0;entryDx=0;entryDy=0;shadow=0;labelBackgroundColor=default;strokeColor=#006EAF;fontFamily=Architects Daughter;fontSource=https%3A%2F%2Ffonts.googleapis.com%2Fcss%3Ffamily%3DArchitects%2BDaughter;fontSize=12;fontColor=#000000;endArrow=open;endFill=0;startSize=2;endSize=6;sourcePerimeterSpacing=8;targetPerimeterSpacing=8;fillColor=#1ba1e2;" parent="1" source="92rEHbwfL_dCJVszTuG9-83" target="92rEHbwfL_dCJVszTuG9-106" edge="1">
          <mxGeometry relative="1" as="geometry" />
        </mxCell>
        <mxCell id="92rEHbwfL_dCJVszTuG9-83" value="推送失败重试" style="rounded=0;whiteSpace=wrap;html=1;sketch=1;hachureGap=4;fontFamily=Architects Daughter;fontSource=https%3A%2F%2Ffonts.googleapis.com%2Fcss%3Ffamily%3DArchitects%2BDaughter;fontSize=12;" parent="1" vertex="1">
          <mxGeometry x="-6465" y="-1864.27" width="43" height="38" as="geometry" />
        </mxCell>
        <mxCell id="92rEHbwfL_dCJVszTuG9-103" style="edgeStyle=none;shape=connector;curved=1;rounded=1;sketch=1;hachureGap=4;orthogonalLoop=1;jettySize=auto;html=1;exitX=0.5;exitY=1;exitDx=0;exitDy=0;entryX=0.5;entryY=0;entryDx=0;entryDy=0;shadow=0;labelBackgroundColor=default;strokeColor=#006EAF;fontFamily=Architects Daughter;fontSource=https%3A%2F%2Ffonts.googleapis.com%2Fcss%3Ffamily%3DArchitects%2BDaughter;fontSize=12;fontColor=#000000;endArrow=open;endFill=0;startSize=2;endSize=8;sourcePerimeterSpacing=8;targetPerimeterSpacing=8;fillColor=#1ba1e2;" parent="1" source="92rEHbwfL_dCJVszTuG9-84" target="92rEHbwfL_dCJVszTuG9-106" edge="1">
          <mxGeometry relative="1" as="geometry" />
        </mxCell>
        <mxCell id="92rEHbwfL_dCJVszTuG9-84" value="顺序推送" style="rounded=0;whiteSpace=wrap;html=1;sketch=1;hachureGap=4;fontFamily=Architects Daughter;fontSource=https%3A%2F%2Ffonts.googleapis.com%2Fcss%3Ffamily%3DArchitects%2BDaughter;fontSize=12;" parent="1" vertex="1">
          <mxGeometry x="-6416" y="-1864.27" width="37" height="38" as="geometry" />
        </mxCell>
        <mxCell id="92rEHbwfL_dCJVszTuG9-86" style="edgeStyle=none;shape=connector;curved=1;rounded=1;sketch=1;hachureGap=4;orthogonalLoop=1;jettySize=auto;html=1;exitX=0.25;exitY=1;exitDx=0;exitDy=0;entryX=0.5;entryY=0;entryDx=0;entryDy=0;shadow=0;labelBackgroundColor=default;strokeColor=#E07A5F;fontFamily=Architects Daughter;fontSource=https%3A%2F%2Ffonts.googleapis.com%2Fcss%3Ffamily%3DArchitects%2BDaughter;fontSize=12;fontColor=#393C56;endArrow=open;endFill=0;startSize=2;endSize=6;sourcePerimeterSpacing=8;targetPerimeterSpacing=8;fillColor=#F2CC8F;" parent="1" source="92rEHbwfL_dCJVszTuG9-85" target="92rEHbwfL_dCJVszTuG9-36" edge="1">
          <mxGeometry relative="1" as="geometry" />
        </mxCell>
        <mxCell id="92rEHbwfL_dCJVszTuG9-87" value="发送消息" style="edgeLabel;html=1;align=center;verticalAlign=middle;resizable=0;points=[];fontSize=12;fontFamily=Architects Daughter;fontColor=#393C56;" parent="92rEHbwfL_dCJVszTuG9-86" vertex="1" connectable="0">
          <mxGeometry x="-0.3762" y="1" relative="1" as="geometry">
            <mxPoint x="-2" y="11" as="offset" />
          </mxGeometry>
        </mxCell>
        <mxCell id="92rEHbwfL_dCJVszTuG9-89" value="订单服务" style="text;strokeColor=none;fillColor=none;html=1;align=center;verticalAlign=middle;whiteSpace=wrap;rounded=0;dashed=1;dashPattern=1 4;sketch=1;hachureGap=4;fontFamily=Architects Daughter;fontSource=https%3A%2F%2Ffonts.googleapis.com%2Fcss%3Ffamily%3DArchitects%2BDaughter;fontSize=12;fontColor=#393C56;" parent="1" vertex="1">
          <mxGeometry x="-6616" y="-2267" width="60" height="30" as="geometry" />
        </mxCell>
        <mxCell id="92rEHbwfL_dCJVszTuG9-94" style="edgeStyle=none;shape=connector;curved=1;rounded=1;sketch=1;hachureGap=4;orthogonalLoop=1;jettySize=auto;html=1;exitX=0.5;exitY=1;exitDx=0;exitDy=0;entryX=0.25;entryY=0;entryDx=0;entryDy=0;shadow=0;labelBackgroundColor=default;strokeColor=#E07A5F;fontFamily=Architects Daughter;fontSource=https%3A%2F%2Ffonts.googleapis.com%2Fcss%3Ffamily%3DArchitects%2BDaughter;fontSize=12;fontColor=#000000;endArrow=open;endFill=0;startSize=2;endSize=6;sourcePerimeterSpacing=8;targetPerimeterSpacing=8;fillColor=#F2CC8F;" parent="1" source="92rEHbwfL_dCJVszTuG9-90" target="92rEHbwfL_dCJVszTuG9-85" edge="1">
          <mxGeometry relative="1" as="geometry" />
        </mxCell>
        <mxCell id="92rEHbwfL_dCJVszTuG9-90" value="执行业务逻辑" style="rounded=0;whiteSpace=wrap;html=1;sketch=1;hachureGap=4;strokeColor=#006EAF;fontFamily=Architects Daughter;fontSource=https%3A%2F%2Ffonts.googleapis.com%2Fcss%3Ffamily%3DArchitects%2BDaughter;fontSize=12;fillColor=#1ba1e2;fontColor=#000000;" parent="1" vertex="1">
          <mxGeometry x="-6596" y="-2222" width="111" height="48" as="geometry" />
        </mxCell>
        <mxCell id="92rEHbwfL_dCJVszTuG9-98" value="用户服务" style="text;strokeColor=none;fillColor=none;html=1;align=center;verticalAlign=middle;whiteSpace=wrap;rounded=0;sketch=1;hachureGap=4;fontFamily=Architects Daughter;fontSource=https%3A%2F%2Ffonts.googleapis.com%2Fcss%3Ffamily%3DArchitects%2BDaughter;fontSize=12;fontColor=#000000;" parent="1" vertex="1">
          <mxGeometry x="-6616" y="-1776" width="60" height="30" as="geometry" />
        </mxCell>
        <mxCell id="92rEHbwfL_dCJVszTuG9-101" value="&lt;span style=&quot;color: rgb(0, 0, 0); font-family: Helvetica; font-size: 12px; font-style: normal; font-variant-ligatures: normal; font-variant-caps: normal; font-weight: 400; letter-spacing: normal; orphans: 2; text-align: center; text-indent: 0px; text-transform: none; widows: 2; word-spacing: 0px; -webkit-text-stroke-width: 0px; background-color: rgb(255, 255, 255); text-decoration-thickness: initial; text-decoration-style: initial; text-decoration-color: initial; float: none; display: inline !important;&quot;&gt;消息消费&lt;/span&gt;" style="text;strokeColor=none;fillColor=none;html=1;align=center;verticalAlign=middle;whiteSpace=wrap;rounded=0;sketch=1;hachureGap=4;fontFamily=Architects Daughter;fontSource=https%3A%2F%2Ffonts.googleapis.com%2Fcss%3Ffamily%3DArchitects%2BDaughter;fontSize=12;fontColor=#000000;" parent="1" vertex="1">
          <mxGeometry x="-6596" y="-1870" width="70" height="29" as="geometry" />
        </mxCell>
        <mxCell id="92rEHbwfL_dCJVszTuG9-105" value="&lt;span style=&quot;color: rgb(0, 0, 0); font-family: Helvetica; font-size: 12px; font-style: normal; font-variant-ligatures: normal; font-variant-caps: normal; font-weight: 400; letter-spacing: normal; orphans: 2; text-align: center; text-indent: 0px; text-transform: none; widows: 2; word-spacing: 0px; -webkit-text-stroke-width: 0px; background-color: rgb(255, 255, 255); text-decoration-thickness: initial; text-decoration-style: initial; text-decoration-color: initial; float: none; display: inline !important;&quot;&gt;SDK&lt;/span&gt;" style="text;strokeColor=none;fillColor=none;html=1;align=center;verticalAlign=middle;whiteSpace=wrap;rounded=0;sketch=1;hachureGap=4;fontFamily=Architects Daughter;fontSource=https%3A%2F%2Ffonts.googleapis.com%2Fcss%3Ffamily%3DArchitects%2BDaughter;fontSize=12;fontColor=#000000;" parent="1" vertex="1">
          <mxGeometry x="-6612" y="-2137" width="70" height="29" as="geometry" />
        </mxCell>
        <mxCell id="92rEHbwfL_dCJVszTuG9-108" style="edgeStyle=none;shape=connector;curved=1;rounded=1;sketch=1;hachureGap=4;orthogonalLoop=1;jettySize=auto;html=1;exitX=0.25;exitY=1;exitDx=0;exitDy=0;shadow=0;labelBackgroundColor=default;strokeColor=#E07A5F;fontFamily=Architects Daughter;fontSource=https%3A%2F%2Ffonts.googleapis.com%2Fcss%3Ffamily%3DArchitects%2BDaughter;fontSize=12;fontColor=#000000;endArrow=open;endFill=0;startSize=2;endSize=8;sourcePerimeterSpacing=8;targetPerimeterSpacing=8;fillColor=#F2CC8F;entryX=0.364;entryY=0;entryDx=0;entryDy=0;entryPerimeter=0;" parent="1" source="92rEHbwfL_dCJVszTuG9-106" target="92rEHbwfL_dCJVszTuG9-44" edge="1">
          <mxGeometry relative="1" as="geometry">
            <mxPoint x="-6556" y="-1665" as="targetPoint" />
          </mxGeometry>
        </mxCell>
        <mxCell id="92rEHbwfL_dCJVszTuG9-106" value="" style="rounded=0;whiteSpace=wrap;html=1;hachureGap=4;sketch=1;fillColor=#F2CC8F;strokeColor=#E07A5F;fontColor=#393C56;" parent="1" vertex="1">
          <mxGeometry x="-6590" y="-1744.5" width="141" height="45" as="geometry" />
        </mxCell>
        <mxCell id="92rEHbwfL_dCJVszTuG9-107" value="&lt;span style=&quot;color: rgb(0, 0, 0); font-family: Helvetica; font-size: 12px; font-style: normal; font-variant-ligatures: normal; font-variant-caps: normal; font-weight: 400; letter-spacing: normal; orphans: 2; text-align: center; text-indent: 0px; text-transform: none; widows: 2; word-spacing: 0px; -webkit-text-stroke-width: 0px; background-color: rgb(255, 255, 255); text-decoration-thickness: initial; text-decoration-style: initial; text-decoration-color: initial; float: none; display: inline !important;&quot;&gt;SDK&lt;/span&gt;" style="text;strokeColor=none;fillColor=none;html=1;align=center;verticalAlign=middle;whiteSpace=wrap;rounded=0;sketch=1;hachureGap=4;fontFamily=Architects Daughter;fontSource=https%3A%2F%2Ffonts.googleapis.com%2Fcss%3Ffamily%3DArchitects%2BDaughter;fontSize=12;fontColor=#000000;" parent="1" vertex="1">
          <mxGeometry x="-6607" y="-1746" width="70" height="29" as="geometry" />
        </mxCell>
        <mxCell id="92rEHbwfL_dCJVszTuG9-111" value="" style="edgeStyle=none;shape=connector;curved=1;rounded=1;sketch=1;hachureGap=4;orthogonalLoop=1;jettySize=auto;html=1;shadow=0;labelBackgroundColor=default;strokeColor=#006EAF;fontFamily=Architects Daughter;fontSource=https%3A%2F%2Ffonts.googleapis.com%2Fcss%3Ffamily%3DArchitects%2BDaughter;fontSize=12;fontColor=#000000;endArrow=open;endFill=0;startSize=2;endSize=8;sourcePerimeterSpacing=8;targetPerimeterSpacing=8;fillColor=#1ba1e2;exitX=0.5;exitY=1;exitDx=0;exitDy=0;entryX=0.75;entryY=0;entryDx=0;entryDy=0;" parent="1" source="92rEHbwfL_dCJVszTuG9-110" target="92rEHbwfL_dCJVszTuG9-44" edge="1">
          <mxGeometry relative="1" as="geometry" />
        </mxCell>
        <mxCell id="92rEHbwfL_dCJVszTuG9-110" value="重试" style="rounded=0;whiteSpace=wrap;html=1;sketch=1;hachureGap=4;fontFamily=Architects Daughter;fontSource=https%3A%2F%2Ffonts.googleapis.com%2Fcss%3Ffamily%3DArchitects%2BDaughter;fontSize=12;" parent="1" vertex="1">
          <mxGeometry x="-6502" y="-1741" width="43" height="38" as="geometry" />
        </mxCell>
        <mxCell id="Xln2FsENci7nYwHpWwWN-10" style="edgeStyle=orthogonalEdgeStyle;rounded=0;orthogonalLoop=1;jettySize=auto;html=1;fontSize=20;sketch=1;curveFitting=1;jiggle=2;" parent="1" source="Xln2FsENci7nYwHpWwWN-11" target="Xln2FsENci7nYwHpWwWN-13" edge="1">
          <mxGeometry relative="1" as="geometry" />
        </mxCell>
        <mxCell id="Xln2FsENci7nYwHpWwWN-11" value="ServiceA" style="rounded=0;whiteSpace=wrap;html=1;sketch=1;curveFitting=1;jiggle=2;fontSize=20;" parent="1" vertex="1">
          <mxGeometry x="-5197" y="-2603" width="185.87" height="88" as="geometry" />
        </mxCell>
        <mxCell id="Xln2FsENci7nYwHpWwWN-12" style="rounded=0;sketch=1;orthogonalLoop=1;jettySize=auto;html=1;fontSize=20;startSize=9;endSize=9;endArrow=open;endFill=0;" parent="1" source="Xln2FsENci7nYwHpWwWN-13" target="Xln2FsENci7nYwHpWwWN-15" edge="1">
          <mxGeometry relative="1" as="geometry" />
        </mxCell>
        <mxCell id="Xln2FsENci7nYwHpWwWN-13" value="message-bus-client" style="rounded=0;whiteSpace=wrap;html=1;sketch=1;fontSize=20;curveFitting=1;jiggle=2;" parent="1" vertex="1">
          <mxGeometry x="-4965" y="-2603" width="128" height="88" as="geometry" />
        </mxCell>
        <mxCell id="Xln2FsENci7nYwHpWwWN-14" style="edgeStyle=none;rounded=0;sketch=1;orthogonalLoop=1;jettySize=auto;html=1;fontSize=20;endArrow=open;endFill=0;startSize=6;endSize=12;" parent="1" source="Xln2FsENci7nYwHpWwWN-15" target="Xln2FsENci7nYwHpWwWN-18" edge="1">
          <mxGeometry relative="1" as="geometry" />
        </mxCell>
        <mxCell id="Xln2FsENci7nYwHpWwWN-15" value="Kafka" style="ellipse;shape=cloud;whiteSpace=wrap;html=1;sketch=1;fontSize=20;curveFitting=1;jiggle=2;" parent="1" vertex="1">
          <mxGeometry x="-4849" y="-2754" width="120" height="80" as="geometry" />
        </mxCell>
        <mxCell id="Xln2FsENci7nYwHpWwWN-16" value="ServiceB" style="rounded=0;whiteSpace=wrap;html=1;sketch=1;curveFitting=1;jiggle=2;fontSize=20;" parent="1" vertex="1">
          <mxGeometry x="-4535" y="-2601" width="185.87" height="88" as="geometry" />
        </mxCell>
        <mxCell id="Xln2FsENci7nYwHpWwWN-17" style="edgeStyle=none;rounded=0;sketch=1;orthogonalLoop=1;jettySize=auto;html=1;fontSize=20;" parent="1" source="Xln2FsENci7nYwHpWwWN-18" target="Xln2FsENci7nYwHpWwWN-16" edge="1">
          <mxGeometry relative="1" as="geometry" />
        </mxCell>
        <mxCell id="Xln2FsENci7nYwHpWwWN-18" value="message-bus-client" style="rounded=0;whiteSpace=wrap;html=1;sketch=1;fontSize=20;curveFitting=1;jiggle=2;" parent="1" vertex="1">
          <mxGeometry x="-4712" y="-2599" width="128" height="88" as="geometry" />
        </mxCell>
        <mxCell id="Xln2FsENci7nYwHpWwWN-19" value="ServiceA" style="rounded=0;whiteSpace=wrap;html=1;sketch=1;curveFitting=1;jiggle=2;fontSize=20;" parent="1" vertex="1">
          <mxGeometry x="-5187" y="-2128" width="185.87" height="88" as="geometry" />
        </mxCell>
        <mxCell id="Xln2FsENci7nYwHpWwWN-20" value="" style="rounded=0;whiteSpace=wrap;html=1;sketch=1;hachureGap=4;jiggle=2;curveFitting=1;fontFamily=Architects Daughter;fontSource=https%3A%2F%2Ffonts.googleapis.com%2Fcss%3Ffamily%3DArchitects%2BDaughter;fontSize=20;" parent="1" vertex="1">
          <mxGeometry x="-4854" y="-2363" width="328" height="195" as="geometry" />
        </mxCell>
        <mxCell id="Xln2FsENci7nYwHpWwWN-21" value="ServiceB" style="rounded=0;whiteSpace=wrap;html=1;sketch=1;curveFitting=1;jiggle=2;fontSize=20;" parent="1" vertex="1">
          <mxGeometry x="-4368.13" y="-2108" width="185.87" height="88" as="geometry" />
        </mxCell>
        <mxCell id="Xln2FsENci7nYwHpWwWN-22" style="edgeStyle=orthogonalEdgeStyle;rounded=0;orthogonalLoop=1;jettySize=auto;html=1;fontSize=20;sketch=1;curveFitting=1;jiggle=2;" parent="1" source="Xln2FsENci7nYwHpWwWN-23" target="Xln2FsENci7nYwHpWwWN-25" edge="1">
          <mxGeometry relative="1" as="geometry" />
        </mxCell>
        <mxCell id="Xln2FsENci7nYwHpWwWN-23" value="ServiceA" style="rounded=0;whiteSpace=wrap;html=1;sketch=1;curveFitting=1;jiggle=2;fontSize=20;" parent="1" vertex="1">
          <mxGeometry x="-5216" y="-2882" width="185.87" height="88" as="geometry" />
        </mxCell>
        <mxCell id="Xln2FsENci7nYwHpWwWN-24" style="rounded=0;sketch=1;orthogonalLoop=1;jettySize=auto;html=1;fontSize=20;startSize=9;endSize=9;endArrow=open;endFill=0;" parent="1" source="Xln2FsENci7nYwHpWwWN-25" target="Xln2FsENci7nYwHpWwWN-27" edge="1">
          <mxGeometry relative="1" as="geometry" />
        </mxCell>
        <mxCell id="Xln2FsENci7nYwHpWwWN-25" value="Kafka SDK" style="rounded=0;whiteSpace=wrap;html=1;sketch=1;fontSize=20;curveFitting=1;jiggle=2;" parent="1" vertex="1">
          <mxGeometry x="-4984" y="-2882" width="128" height="88" as="geometry" />
        </mxCell>
        <mxCell id="Xln2FsENci7nYwHpWwWN-26" style="edgeStyle=none;rounded=0;sketch=1;orthogonalLoop=1;jettySize=auto;html=1;fontSize=20;endArrow=open;endFill=0;startSize=6;endSize=12;" parent="1" source="Xln2FsENci7nYwHpWwWN-27" target="Xln2FsENci7nYwHpWwWN-30" edge="1">
          <mxGeometry relative="1" as="geometry" />
        </mxCell>
        <mxCell id="Xln2FsENci7nYwHpWwWN-27" value="Kafka" style="ellipse;shape=cloud;whiteSpace=wrap;html=1;sketch=1;fontSize=20;curveFitting=1;jiggle=2;" parent="1" vertex="1">
          <mxGeometry x="-4868" y="-3033" width="120" height="80" as="geometry" />
        </mxCell>
        <mxCell id="Xln2FsENci7nYwHpWwWN-28" value="ServiceB" style="rounded=0;whiteSpace=wrap;html=1;sketch=1;curveFitting=1;jiggle=2;fontSize=20;" parent="1" vertex="1">
          <mxGeometry x="-4554" y="-2880" width="185.87" height="88" as="geometry" />
        </mxCell>
        <mxCell id="Xln2FsENci7nYwHpWwWN-29" style="edgeStyle=none;rounded=0;sketch=1;orthogonalLoop=1;jettySize=auto;html=1;fontSize=20;" parent="1" source="Xln2FsENci7nYwHpWwWN-30" target="Xln2FsENci7nYwHpWwWN-28" edge="1">
          <mxGeometry relative="1" as="geometry" />
        </mxCell>
        <mxCell id="Xln2FsENci7nYwHpWwWN-30" value="Kafka SDK" style="rounded=0;whiteSpace=wrap;html=1;sketch=1;fontSize=20;curveFitting=1;jiggle=2;" parent="1" vertex="1">
          <mxGeometry x="-4731" y="-2878" width="128" height="88" as="geometry" />
        </mxCell>
        <mxCell id="Xln2FsENci7nYwHpWwWN-34" value="发送消息的能力" style="rounded=0;whiteSpace=wrap;html=1;sketch=1;hachureGap=4;jiggle=2;curveFitting=1;fontFamily=Architects Daughter;fontSource=https%3A%2F%2Ffonts.googleapis.com%2Fcss%3Ffamily%3DArchitects%2BDaughter;fontSize=20;" parent="1" vertex="1">
          <mxGeometry x="-4843" y="-2263" width="86" height="80" as="geometry" />
        </mxCell>
        <mxCell id="Xln2FsENci7nYwHpWwWN-35" value="接收消息的能力" style="rounded=0;whiteSpace=wrap;html=1;sketch=1;hachureGap=4;jiggle=2;curveFitting=1;fontFamily=Architects Daughter;fontSource=https%3A%2F%2Ffonts.googleapis.com%2Fcss%3Ffamily%3DArchitects%2BDaughter;fontSize=20;" parent="1" vertex="1">
          <mxGeometry x="-4623" y="-2263" width="86" height="80" as="geometry" />
        </mxCell>
        <mxCell id="Xln2FsENci7nYwHpWwWN-31" style="edgeStyle=none;curved=1;rounded=0;sketch=1;hachureGap=4;jiggle=2;curveFitting=1;orthogonalLoop=1;jettySize=auto;html=1;fontFamily=Architects Daughter;fontSource=https%3A%2F%2Ffonts.googleapis.com%2Fcss%3Ffamily%3DArchitects%2BDaughter;fontSize=16;endArrow=open;startSize=14;endSize=14;sourcePerimeterSpacing=8;targetPerimeterSpacing=8;entryX=0;entryY=0.5;entryDx=0;entryDy=0;" parent="1" source="Xln2FsENci7nYwHpWwWN-19" target="Xln2FsENci7nYwHpWwWN-34" edge="1">
          <mxGeometry relative="1" as="geometry" />
        </mxCell>
        <mxCell id="Xln2FsENci7nYwHpWwWN-32" style="edgeStyle=none;curved=1;rounded=0;sketch=1;hachureGap=4;jiggle=2;curveFitting=1;orthogonalLoop=1;jettySize=auto;html=1;fontFamily=Architects Daughter;fontSource=https%3A%2F%2Ffonts.googleapis.com%2Fcss%3Ffamily%3DArchitects%2BDaughter;fontSize=16;endArrow=open;startSize=14;endSize=14;sourcePerimeterSpacing=8;targetPerimeterSpacing=8;exitX=1;exitY=0.5;exitDx=0;exitDy=0;" parent="1" source="Xln2FsENci7nYwHpWwWN-35" target="Xln2FsENci7nYwHpWwWN-21" edge="1">
          <mxGeometry relative="1" as="geometry" />
        </mxCell>
        <mxCell id="Xln2FsENci7nYwHpWwWN-36" value="Kafka" style="ellipse;shape=cloud;whiteSpace=wrap;html=1;sketch=1;fontSize=20;curveFitting=1;jiggle=2;" parent="1" vertex="1">
          <mxGeometry x="-4757" y="-2359" width="120" height="80" as="geometry" />
        </mxCell>
        <mxCell id="Xln2FsENci7nYwHpWwWN-37" value="消息服务" style="text;strokeColor=none;fillColor=none;html=1;align=center;verticalAlign=middle;whiteSpace=wrap;rounded=0;fontSize=20;fontFamily=Architects Daughter;" parent="1" vertex="1">
          <mxGeometry x="-4854" y="-2363" width="93" height="30" as="geometry" />
        </mxCell>
        <mxCell id="Xln2FsENci7nYwHpWwWN-38" value="ServiceB" style="rounded=0;whiteSpace=wrap;html=1;sketch=1;curveFitting=1;jiggle=2;fontSize=20;" parent="1" vertex="1">
          <mxGeometry x="-4340" y="-2162" width="185.87" height="88" as="geometry" />
        </mxCell>
        <mxCell id="Xln2FsENci7nYwHpWwWN-39" value="ServiceB" style="rounded=0;whiteSpace=wrap;html=1;sketch=1;curveFitting=1;jiggle=2;fontSize=20;" parent="1" vertex="1">
          <mxGeometry x="-4294" y="-2215.5" width="185.87" height="88" as="geometry" />
        </mxCell>
        <mxCell id="Xln2FsENci7nYwHpWwWN-40" style="edgeStyle=none;curved=1;rounded=0;sketch=1;hachureGap=4;jiggle=2;curveFitting=1;orthogonalLoop=1;jettySize=auto;html=1;fontFamily=Architects Daughter;fontSource=https%3A%2F%2Ffonts.googleapis.com%2Fcss%3Ffamily%3DArchitects%2BDaughter;fontSize=16;endArrow=open;startSize=14;endSize=14;sourcePerimeterSpacing=8;targetPerimeterSpacing=8;exitX=1;exitY=0.5;exitDx=0;exitDy=0;" parent="1" source="Xln2FsENci7nYwHpWwWN-35" target="Xln2FsENci7nYwHpWwWN-38" edge="1">
          <mxGeometry relative="1" as="geometry">
            <mxPoint x="-4527" y="-2213" as="sourcePoint" />
            <mxPoint x="-4350.816761006289" y="-2106" as="targetPoint" />
          </mxGeometry>
        </mxCell>
        <mxCell id="Xln2FsENci7nYwHpWwWN-41" style="edgeStyle=none;curved=1;rounded=0;sketch=1;hachureGap=4;jiggle=2;curveFitting=1;orthogonalLoop=1;jettySize=auto;html=1;fontFamily=Architects Daughter;fontSource=https%3A%2F%2Ffonts.googleapis.com%2Fcss%3Ffamily%3DArchitects%2BDaughter;fontSize=16;endArrow=open;startSize=14;endSize=14;sourcePerimeterSpacing=8;targetPerimeterSpacing=8;" parent="1" target="Xln2FsENci7nYwHpWwWN-39" edge="1">
          <mxGeometry relative="1" as="geometry">
            <mxPoint x="-4535" y="-2222" as="sourcePoint" />
            <mxPoint x="-4338" y="-2144.5536240881574" as="targetPoint" />
          </mxGeometry>
        </mxCell>
        <mxCell id="Xln2FsENci7nYwHpWwWN-43" value="ServiceA" style="rounded=0;whiteSpace=wrap;html=1;sketch=1;curveFitting=1;jiggle=2;fontSize=20;" parent="1" vertex="1">
          <mxGeometry x="-5193" y="-1719" width="185.87" height="88" as="geometry" />
        </mxCell>
        <mxCell id="Xln2FsENci7nYwHpWwWN-44" value="" style="rounded=0;whiteSpace=wrap;html=1;sketch=1;hachureGap=4;jiggle=2;curveFitting=1;fontFamily=Architects Daughter;fontSource=https%3A%2F%2Ffonts.googleapis.com%2Fcss%3Ffamily%3DArchitects%2BDaughter;fontSize=20;" parent="1" vertex="1">
          <mxGeometry x="-4860" y="-1954" width="328" height="195" as="geometry" />
        </mxCell>
        <mxCell id="Xln2FsENci7nYwHpWwWN-45" value="ServiceB" style="rounded=0;whiteSpace=wrap;html=1;sketch=1;curveFitting=1;jiggle=2;fontSize=20;" parent="1" vertex="1">
          <mxGeometry x="-4374.13" y="-1699" width="185.87" height="88" as="geometry" />
        </mxCell>
        <mxCell id="Xln2FsENci7nYwHpWwWN-46" value="发送消息的能力" style="rounded=0;whiteSpace=wrap;html=1;sketch=1;hachureGap=4;jiggle=2;curveFitting=1;fontFamily=Architects Daughter;fontSource=https%3A%2F%2Ffonts.googleapis.com%2Fcss%3Ffamily%3DArchitects%2BDaughter;fontSize=20;" parent="1" vertex="1">
          <mxGeometry x="-4849" y="-1854" width="86" height="80" as="geometry" />
        </mxCell>
        <mxCell id="Xln2FsENci7nYwHpWwWN-47" value="接收消息的能力" style="rounded=0;whiteSpace=wrap;html=1;sketch=1;hachureGap=4;jiggle=2;curveFitting=1;fontFamily=Architects Daughter;fontSource=https%3A%2F%2Ffonts.googleapis.com%2Fcss%3Ffamily%3DArchitects%2BDaughter;fontSize=20;" parent="1" vertex="1">
          <mxGeometry x="-4629" y="-1854" width="86" height="80" as="geometry" />
        </mxCell>
        <mxCell id="Xln2FsENci7nYwHpWwWN-48" style="edgeStyle=none;curved=1;rounded=0;sketch=1;hachureGap=4;jiggle=2;curveFitting=1;orthogonalLoop=1;jettySize=auto;html=1;fontFamily=Architects Daughter;fontSource=https%3A%2F%2Ffonts.googleapis.com%2Fcss%3Ffamily%3DArchitects%2BDaughter;fontSize=16;endArrow=open;startSize=14;endSize=14;targetPerimeterSpacing=8;entryX=0;entryY=0.5;entryDx=0;entryDy=0;startArrow=none;" parent="1" source="Xln2FsENci7nYwHpWwWN-60" target="Xln2FsENci7nYwHpWwWN-46" edge="1">
          <mxGeometry relative="1" as="geometry" />
        </mxCell>
        <mxCell id="Xln2FsENci7nYwHpWwWN-49" style="edgeStyle=none;curved=1;rounded=0;sketch=1;hachureGap=4;jiggle=2;curveFitting=1;orthogonalLoop=1;jettySize=auto;html=1;fontFamily=Architects Daughter;fontSource=https%3A%2F%2Ffonts.googleapis.com%2Fcss%3Ffamily%3DArchitects%2BDaughter;fontSize=16;endArrow=open;startSize=14;endSize=14;targetPerimeterSpacing=8;exitX=1;exitY=0.5;exitDx=0;exitDy=0;startArrow=none;" parent="1" source="Xln2FsENci7nYwHpWwWN-63" target="Xln2FsENci7nYwHpWwWN-45" edge="1">
          <mxGeometry relative="1" as="geometry" />
        </mxCell>
        <mxCell id="Xln2FsENci7nYwHpWwWN-50" value="Kafka" style="ellipse;shape=cloud;whiteSpace=wrap;html=1;sketch=1;fontSize=20;curveFitting=1;jiggle=2;" parent="1" vertex="1">
          <mxGeometry x="-4763" y="-1950" width="120" height="80" as="geometry" />
        </mxCell>
        <mxCell id="Xln2FsENci7nYwHpWwWN-51" value="消息服务" style="text;strokeColor=none;fillColor=none;html=1;align=center;verticalAlign=middle;whiteSpace=wrap;rounded=0;fontSize=20;fontFamily=Architects Daughter;" parent="1" vertex="1">
          <mxGeometry x="-4860" y="-1954" width="93" height="30" as="geometry" />
        </mxCell>
        <mxCell id="Xln2FsENci7nYwHpWwWN-56" value="&lt;b&gt;发送&lt;br style=&quot;font-size: 14px;&quot;&gt;失败&lt;/b&gt;" style="ellipse;whiteSpace=wrap;html=1;aspect=fixed;sketch=1;hachureGap=4;jiggle=2;curveFitting=1;fontFamily=Architects Daughter;fontSource=https%3A%2F%2Ffonts.googleapis.com%2Fcss%3Ffamily%3DArchitects%2BDaughter;fontSize=14;fontColor=#EA6B66;strokeColor=#EA6B66;" parent="1" vertex="1">
          <mxGeometry x="-4990" y="-1839" width="50" height="50" as="geometry" />
        </mxCell>
        <mxCell id="Xln2FsENci7nYwHpWwWN-57" value="&lt;b&gt;已提交&lt;br&gt;&lt;/b&gt;" style="ellipse;whiteSpace=wrap;html=1;aspect=fixed;sketch=1;hachureGap=4;jiggle=2;curveFitting=1;fontFamily=Architects Daughter;fontSource=https%3A%2F%2Ffonts.googleapis.com%2Fcss%3Ffamily%3DArchitects%2BDaughter;fontSize=14;fontColor=#19FF29;strokeColor=#19FF29;" parent="1" vertex="1">
          <mxGeometry x="-4721" y="-1831" width="50" height="50" as="geometry" />
        </mxCell>
        <mxCell id="Xln2FsENci7nYwHpWwWN-58" value="&lt;b&gt;推送&lt;br&gt;失败&lt;br&gt;&lt;/b&gt;" style="ellipse;whiteSpace=wrap;html=1;aspect=fixed;sketch=1;hachureGap=4;jiggle=2;curveFitting=1;fontFamily=Architects Daughter;fontSource=https%3A%2F%2Ffonts.googleapis.com%2Fcss%3Ffamily%3DArchitects%2BDaughter;fontSize=14;fontColor=#EA6B66;strokeColor=#EA6B66;" parent="1" vertex="1">
          <mxGeometry x="-4442" y="-1822.5" width="50" height="50" as="geometry" />
        </mxCell>
        <mxCell id="Xln2FsENci7nYwHpWwWN-59" value="&lt;b&gt;已处理&lt;br&gt;&lt;/b&gt;" style="ellipse;whiteSpace=wrap;html=1;aspect=fixed;sketch=1;hachureGap=4;jiggle=2;curveFitting=1;fontFamily=Architects Daughter;fontSource=https%3A%2F%2Ffonts.googleapis.com%2Fcss%3Ffamily%3DArchitects%2BDaughter;fontSize=14;fontColor=#3333FF;strokeColor=#3333FF;" parent="1" vertex="1">
          <mxGeometry x="-4243" y="-1665" width="50" height="50" as="geometry" />
        </mxCell>
        <mxCell id="Xln2FsENci7nYwHpWwWN-62" value="" style="edgeStyle=none;curved=1;rounded=0;sketch=1;hachureGap=4;jiggle=2;curveFitting=1;orthogonalLoop=1;jettySize=auto;html=1;fontFamily=Architects Daughter;fontSource=https%3A%2F%2Ffonts.googleapis.com%2Fcss%3Ffamily%3DArchitects%2BDaughter;fontSize=16;endArrow=none;startSize=14;endSize=14;sourcePerimeterSpacing=8;entryX=0;entryY=0.5;entryDx=0;entryDy=0;" parent="1" source="Xln2FsENci7nYwHpWwWN-43" target="Xln2FsENci7nYwHpWwWN-60" edge="1">
          <mxGeometry relative="1" as="geometry">
            <mxPoint x="-5006.141402877698" y="-1727" as="sourcePoint" />
            <mxPoint x="-4849" y="-1814" as="targetPoint" />
          </mxGeometry>
        </mxCell>
        <mxCell id="Xln2FsENci7nYwHpWwWN-60" value="" style="verticalLabelPosition=bottom;verticalAlign=top;html=1;shape=mxgraph.basic.x;labelBorderColor=#EA6B66;sketch=1;hachureGap=4;jiggle=2;curveFitting=1;strokeColor=#EA6B66;fontFamily=Architects Daughter;fontSource=https%3A%2F%2Ffonts.googleapis.com%2Fcss%3Ffamily%3DArchitects%2BDaughter;fontSize=14;fontColor=#EA6B66;" parent="1" vertex="1">
          <mxGeometry x="-4943" y="-1781" width="30" height="23" as="geometry" />
        </mxCell>
        <mxCell id="Xln2FsENci7nYwHpWwWN-64" value="" style="edgeStyle=none;curved=1;rounded=0;sketch=1;hachureGap=4;jiggle=2;curveFitting=1;orthogonalLoop=1;jettySize=auto;html=1;fontFamily=Architects Daughter;fontSource=https%3A%2F%2Ffonts.googleapis.com%2Fcss%3Ffamily%3DArchitects%2BDaughter;fontSize=16;endArrow=none;startSize=14;endSize=14;sourcePerimeterSpacing=8;exitX=1;exitY=0.5;exitDx=0;exitDy=0;" parent="1" source="Xln2FsENci7nYwHpWwWN-47" target="Xln2FsENci7nYwHpWwWN-63" edge="1">
          <mxGeometry relative="1" as="geometry">
            <mxPoint x="-4543" y="-1814" as="sourcePoint" />
            <mxPoint x="-4366.816761006289" y="-1707" as="targetPoint" />
          </mxGeometry>
        </mxCell>
        <mxCell id="Xln2FsENci7nYwHpWwWN-63" value="" style="verticalLabelPosition=bottom;verticalAlign=top;html=1;shape=mxgraph.basic.x;labelBorderColor=#EA6B66;sketch=1;hachureGap=4;jiggle=2;curveFitting=1;strokeColor=#EA6B66;fontFamily=Architects Daughter;fontSource=https%3A%2F%2Ffonts.googleapis.com%2Fcss%3Ffamily%3DArchitects%2BDaughter;fontSize=14;fontColor=#EA6B66;" parent="1" vertex="1">
          <mxGeometry x="-4469" y="-1772.5" width="30" height="23" as="geometry" />
        </mxCell>
        <mxCell id="Xln2FsENci7nYwHpWwWN-65" value="&lt;b&gt;处理&lt;br&gt;失败&lt;br&gt;&lt;/b&gt;" style="ellipse;whiteSpace=wrap;html=1;aspect=fixed;sketch=1;hachureGap=4;jiggle=2;curveFitting=1;fontFamily=Architects Daughter;fontSource=https%3A%2F%2Ffonts.googleapis.com%2Fcss%3Ffamily%3DArchitects%2BDaughter;fontSize=14;fontColor=#EA6B66;strokeColor=#EA6B66;" parent="1" vertex="1">
          <mxGeometry x="-4368.13" y="-1665" width="50" height="50" as="geometry" />
        </mxCell>
      </root>
    </mxGraphModel>
  </diagram>
</mxfile>
